<?xml version="1.0" encoding="UTF-8"?>
<svg version="1.1" xmlns="http://www.w3.org/2000/svg" width="38" height="33">
<path d="M0 0 C3.85958959 2.0158366 6.27660932 4.22741897 7.83984375 8.2734375 C8.39445488 12.75505321 8.05881824 16.30403692 5.83984375 20.2734375 C6.48953125 20.80453125 7.13921875 21.335625 7.80859375 21.8828125 C8.64390625 22.58921875 9.47921875 23.295625 10.33984375 24.0234375 C11.17515625 24.71953125 12.01046875 25.415625 12.87109375 26.1328125 C14.83984375 28.2734375 14.83984375 28.2734375 14.83984375 32.2734375 C11.73232529 32.58095235 10.31118957 32.63141037 7.77734375 30.70703125 C6.48437496 29.37496058 5.19270969 28.04162344 3.90234375 26.70703125 C1.91469162 24.99156071 1.91469162 24.99156071 -0.640625 25.5390625 C-1.47207031 25.78140625 -2.30351562 26.02375 -3.16015625 26.2734375 C-9.68006007 26.98746646 -14.7559679 26.1299475 -20.16015625 22.2734375 C-23.42220048 18.70557662 -23.68652432 15.1580989 -23.5078125 10.48828125 C-22.76646753 5.76533074 -20.34480269 3.14025197 -16.59765625 0.3984375 C-11.16140193 -1.38070028 -5.49963245 -1.84978596 0 0 Z M-18.09765625 7.0234375 C-19.67145446 10.35618665 -19.67077114 12.63530643 -19.16015625 16.2734375 C-16.56920713 19.4098496 -14.35297708 21.96644258 -10.20703125 22.546875 C-6.10825769 22.72811329 -3.0415905 22.71418373 0.33984375 20.2109375 C3.32554729 16.70273583 3.92168521 14.85655938 3.83984375 10.2734375 C2.3961522 6.30328574 1.12544815 5.42133978 -2.66015625 3.4609375 C-8.61561834 1.44033429 -13.37831256 2.76080449 -18.09765625 7.0234375 Z " fill="#F8B218" transform="translate(23.16015625,0.7265625)"/>
</svg>
